<mxfile host="Electron" modified="2024-05-27T16:07:28.769Z" agent="Mozilla/5.0 (Windows NT 10.0; Win64; x64) AppleWebKit/537.36 (KHTML, like Gecko) draw.io/24.2.5 Chrome/120.0.6099.109 Electron/28.1.0 Safari/537.36" etag="iG8qm8K5-d6-wO0abtWJ" version="24.2.5" type="device">
  <diagram name="第 1 页" id="2FEZDoC3l5xh-Ew9cWz8">
    <mxGraphModel dx="1098" dy="820" grid="1" gridSize="10" guides="1" tooltips="1" connect="1" arrows="1" fold="1" page="1" pageScale="1" pageWidth="827" pageHeight="1169" math="0" shadow="0">
      <root>
        <mxCell id="0" />
        <mxCell id="1" parent="0" />
        <mxCell id="7POnDu-EcB44KsYf-m66-11" value="" style="edgeStyle=orthogonalEdgeStyle;rounded=0;orthogonalLoop=1;jettySize=auto;html=1;" parent="1" source="7POnDu-EcB44KsYf-m66-1" target="7POnDu-EcB44KsYf-m66-6" edge="1">
          <mxGeometry relative="1" as="geometry" />
        </mxCell>
        <mxCell id="7POnDu-EcB44KsYf-m66-1" value="进入cmd命令行模式" style="rounded=0;whiteSpace=wrap;html=1;fontSize=16;" parent="1" vertex="1">
          <mxGeometry x="200" y="80" width="160" height="40" as="geometry" />
        </mxCell>
        <mxCell id="7POnDu-EcB44KsYf-m66-9" value="" style="edgeStyle=orthogonalEdgeStyle;rounded=0;orthogonalLoop=1;jettySize=auto;html=1;" parent="1" source="7POnDu-EcB44KsYf-m66-6" target="7POnDu-EcB44KsYf-m66-8" edge="1">
          <mxGeometry relative="1" as="geometry" />
        </mxCell>
        <mxCell id="7POnDu-EcB44KsYf-m66-6" value="转换成指令&lt;div&gt;字符串数组&lt;/div&gt;" style="whiteSpace=wrap;html=1;fontSize=16;rounded=0;" parent="1" vertex="1">
          <mxGeometry x="220" y="160" width="120" height="40" as="geometry" />
        </mxCell>
        <mxCell id="7POnDu-EcB44KsYf-m66-13" value="" style="edgeStyle=orthogonalEdgeStyle;rounded=0;orthogonalLoop=1;jettySize=auto;html=1;" parent="1" source="7POnDu-EcB44KsYf-m66-8" target="7POnDu-EcB44KsYf-m66-12" edge="1">
          <mxGeometry relative="1" as="geometry" />
        </mxCell>
        <mxCell id="7POnDu-EcB44KsYf-m66-18" value="N" style="edgeLabel;html=1;align=center;verticalAlign=middle;resizable=0;points=[];" parent="7POnDu-EcB44KsYf-m66-13" vertex="1" connectable="0">
          <mxGeometry x="-0.16" relative="1" as="geometry">
            <mxPoint y="-2" as="offset" />
          </mxGeometry>
        </mxCell>
        <mxCell id="0rA9rkr5pT30coa19xh0-4" style="edgeStyle=orthogonalEdgeStyle;rounded=0;orthogonalLoop=1;jettySize=auto;html=1;exitX=0;exitY=0.5;exitDx=0;exitDy=0;entryX=0.5;entryY=0;entryDx=0;entryDy=0;" parent="1" source="7POnDu-EcB44KsYf-m66-8" target="0rA9rkr5pT30coa19xh0-2" edge="1">
          <mxGeometry relative="1" as="geometry">
            <Array as="points">
              <mxPoint x="80" y="280" />
              <mxPoint x="80" y="1080" />
              <mxPoint x="280" y="1080" />
            </Array>
          </mxGeometry>
        </mxCell>
        <mxCell id="7POnDu-EcB44KsYf-m66-8" value="命令组&lt;div&gt;是否遍历完&lt;/div&gt;" style="rhombus;whiteSpace=wrap;html=1;fontSize=16;rounded=0;" parent="1" vertex="1">
          <mxGeometry x="160" y="240" width="240" height="80" as="geometry" />
        </mxCell>
        <mxCell id="7POnDu-EcB44KsYf-m66-25" value="" style="edgeStyle=orthogonalEdgeStyle;rounded=0;orthogonalLoop=1;jettySize=auto;html=1;" parent="1" source="7POnDu-EcB44KsYf-m66-12" target="7POnDu-EcB44KsYf-m66-24" edge="1">
          <mxGeometry relative="1" as="geometry" />
        </mxCell>
        <mxCell id="0rA9rkr5pT30coa19xh0-7" value="N" style="edgeLabel;html=1;align=center;verticalAlign=middle;resizable=0;points=[];" parent="7POnDu-EcB44KsYf-m66-25" vertex="1" connectable="0">
          <mxGeometry x="-0.5806" y="2" relative="1" as="geometry">
            <mxPoint x="-2" y="7" as="offset" />
          </mxGeometry>
        </mxCell>
        <mxCell id="0rA9rkr5pT30coa19xh0-5" style="edgeStyle=orthogonalEdgeStyle;rounded=0;orthogonalLoop=1;jettySize=auto;html=1;exitX=0;exitY=0.5;exitDx=0;exitDy=0;" parent="1" source="7POnDu-EcB44KsYf-m66-12" edge="1">
          <mxGeometry relative="1" as="geometry">
            <mxPoint x="80" y="400" as="targetPoint" />
          </mxGeometry>
        </mxCell>
        <mxCell id="0rA9rkr5pT30coa19xh0-6" value="Y" style="edgeLabel;html=1;align=center;verticalAlign=middle;resizable=0;points=[];" parent="0rA9rkr5pT30coa19xh0-5" vertex="1" connectable="0">
          <mxGeometry x="-0.4534" y="-2" relative="1" as="geometry">
            <mxPoint x="-8" y="2" as="offset" />
          </mxGeometry>
        </mxCell>
        <mxCell id="7POnDu-EcB44KsYf-m66-12" value="指令表&lt;span style=&quot;background-color: initial;&quot;&gt;是否遍历完&lt;/span&gt;" style="rhombus;whiteSpace=wrap;html=1;fontSize=16;rounded=0;" parent="1" vertex="1">
          <mxGeometry x="160" y="360" width="240" height="80" as="geometry" />
        </mxCell>
        <mxCell id="7POnDu-EcB44KsYf-m66-30" value="" style="edgeStyle=orthogonalEdgeStyle;rounded=0;orthogonalLoop=1;jettySize=auto;html=1;" parent="1" source="7POnDu-EcB44KsYf-m66-22" target="7POnDu-EcB44KsYf-m66-29" edge="1">
          <mxGeometry relative="1" as="geometry" />
        </mxCell>
        <mxCell id="7POnDu-EcB44KsYf-m66-31" value="Y" style="edgeLabel;html=1;align=center;verticalAlign=middle;resizable=0;points=[];" parent="7POnDu-EcB44KsYf-m66-30" vertex="1" connectable="0">
          <mxGeometry x="-0.3643" relative="1" as="geometry">
            <mxPoint y="2" as="offset" />
          </mxGeometry>
        </mxCell>
        <mxCell id="7POnDu-EcB44KsYf-m66-32" style="edgeStyle=orthogonalEdgeStyle;rounded=0;orthogonalLoop=1;jettySize=auto;html=1;exitX=1;exitY=0.5;exitDx=0;exitDy=0;entryX=1;entryY=0.5;entryDx=0;entryDy=0;" parent="1" source="7POnDu-EcB44KsYf-m66-22" target="7POnDu-EcB44KsYf-m66-12" edge="1">
          <mxGeometry relative="1" as="geometry">
            <Array as="points">
              <mxPoint x="440" y="600" />
              <mxPoint x="440" y="400" />
            </Array>
            <mxPoint x="480" y="600" as="targetPoint" />
          </mxGeometry>
        </mxCell>
        <mxCell id="7POnDu-EcB44KsYf-m66-33" value="N" style="edgeLabel;html=1;align=center;verticalAlign=middle;resizable=0;points=[];" parent="7POnDu-EcB44KsYf-m66-32" vertex="1" connectable="0">
          <mxGeometry x="-0.899" y="-1" relative="1" as="geometry">
            <mxPoint x="15" y="-1" as="offset" />
          </mxGeometry>
        </mxCell>
        <mxCell id="7POnDu-EcB44KsYf-m66-22" value="指令是否匹配" style="rhombus;whiteSpace=wrap;html=1;fontSize=16;rounded=0;" parent="1" vertex="1">
          <mxGeometry x="180" y="560" width="200" height="80" as="geometry" />
        </mxCell>
        <mxCell id="7POnDu-EcB44KsYf-m66-26" value="" style="edgeStyle=orthogonalEdgeStyle;rounded=0;orthogonalLoop=1;jettySize=auto;html=1;" parent="1" source="7POnDu-EcB44KsYf-m66-24" target="7POnDu-EcB44KsYf-m66-22" edge="1">
          <mxGeometry relative="1" as="geometry" />
        </mxCell>
        <mxCell id="7POnDu-EcB44KsYf-m66-24" value="查询指令表的下一条指令" style="whiteSpace=wrap;html=1;fontSize=16;rounded=0;" parent="1" vertex="1">
          <mxGeometry x="200" y="480" width="160" height="40" as="geometry" />
        </mxCell>
        <mxCell id="7POnDu-EcB44KsYf-m66-38" value="" style="edgeStyle=orthogonalEdgeStyle;rounded=0;orthogonalLoop=1;jettySize=auto;html=1;" parent="1" source="7POnDu-EcB44KsYf-m66-29" target="7POnDu-EcB44KsYf-m66-37" edge="1">
          <mxGeometry relative="1" as="geometry" />
        </mxCell>
        <mxCell id="7POnDu-EcB44KsYf-m66-29" value="读取指令所需的参数的个数N" style="whiteSpace=wrap;html=1;fontSize=16;rounded=0;" parent="1" vertex="1">
          <mxGeometry x="220" y="680" width="120" height="40" as="geometry" />
        </mxCell>
        <mxCell id="0rA9rkr5pT30coa19xh0-1" style="edgeStyle=orthogonalEdgeStyle;rounded=0;orthogonalLoop=1;jettySize=auto;html=1;entryX=1;entryY=0.5;entryDx=0;entryDy=0;exitX=0.5;exitY=1;exitDx=0;exitDy=0;" parent="1" source="0rA9rkr5pT30coa19xh0-12" target="7POnDu-EcB44KsYf-m66-8" edge="1">
          <mxGeometry relative="1" as="geometry">
            <mxPoint x="460" y="1080" as="sourcePoint" />
            <Array as="points">
              <mxPoint x="280" y="1040" />
              <mxPoint x="480" y="1040" />
              <mxPoint x="480" y="280" />
            </Array>
          </mxGeometry>
        </mxCell>
        <mxCell id="0rA9rkr5pT30coa19xh0-13" value="" style="edgeStyle=orthogonalEdgeStyle;rounded=0;orthogonalLoop=1;jettySize=auto;html=1;" parent="1" source="7POnDu-EcB44KsYf-m66-34" target="0rA9rkr5pT30coa19xh0-12" edge="1">
          <mxGeometry relative="1" as="geometry" />
        </mxCell>
        <mxCell id="7POnDu-EcB44KsYf-m66-34" value="从字符串数组再读取N个指令" style="whiteSpace=wrap;html=1;fontSize=16;rounded=0;" parent="1" vertex="1">
          <mxGeometry x="220" y="880" width="120" height="40" as="geometry" />
        </mxCell>
        <mxCell id="7POnDu-EcB44KsYf-m66-39" value="" style="edgeStyle=orthogonalEdgeStyle;rounded=0;orthogonalLoop=1;jettySize=auto;html=1;" parent="1" source="7POnDu-EcB44KsYf-m66-37" target="7POnDu-EcB44KsYf-m66-34" edge="1">
          <mxGeometry relative="1" as="geometry" />
        </mxCell>
        <mxCell id="7POnDu-EcB44KsYf-m66-40" value="Y" style="edgeLabel;html=1;align=center;verticalAlign=middle;resizable=0;points=[];" parent="7POnDu-EcB44KsYf-m66-39" vertex="1" connectable="0">
          <mxGeometry x="-0.05" y="1" relative="1" as="geometry">
            <mxPoint x="-1" y="-4" as="offset" />
          </mxGeometry>
        </mxCell>
        <mxCell id="0rA9rkr5pT30coa19xh0-8" style="edgeStyle=orthogonalEdgeStyle;rounded=0;orthogonalLoop=1;jettySize=auto;html=1;exitX=0;exitY=0.5;exitDx=0;exitDy=0;" parent="1" source="7POnDu-EcB44KsYf-m66-37" edge="1">
          <mxGeometry relative="1" as="geometry">
            <mxPoint x="80" y="800.1428571428571" as="targetPoint" />
          </mxGeometry>
        </mxCell>
        <mxCell id="0rA9rkr5pT30coa19xh0-9" value="N" style="edgeLabel;html=1;align=center;verticalAlign=middle;resizable=0;points=[];" parent="0rA9rkr5pT30coa19xh0-8" vertex="1" connectable="0">
          <mxGeometry x="-0.2782" y="-1" relative="1" as="geometry">
            <mxPoint y="1" as="offset" />
          </mxGeometry>
        </mxCell>
        <mxCell id="7POnDu-EcB44KsYf-m66-37" value="字符串数组中的剩余指令数 &amp;gt;= N" style="rhombus;whiteSpace=wrap;html=1;fontSize=16;rounded=0;" parent="1" vertex="1">
          <mxGeometry x="120" y="760" width="320" height="80" as="geometry" />
        </mxCell>
        <mxCell id="0rA9rkr5pT30coa19xh0-2" value="结束" style="whiteSpace=wrap;html=1;fontSize=16;rounded=0;" parent="1" vertex="1">
          <mxGeometry x="240" y="1120" width="80" height="40" as="geometry" />
        </mxCell>
        <mxCell id="0rA9rkr5pT30coa19xh0-11" value="Y" style="edgeLabel;html=1;align=center;verticalAlign=middle;resizable=0;points=[];" parent="1" vertex="1" connectable="0">
          <mxGeometry x="130" y="280" as="geometry" />
        </mxCell>
        <mxCell id="0rA9rkr5pT30coa19xh0-12" value="执行对应的&lt;div&gt;工具接口&lt;/div&gt;" style="whiteSpace=wrap;html=1;fontSize=16;rounded=0;" parent="1" vertex="1">
          <mxGeometry x="220" y="960" width="120" height="40" as="geometry" />
        </mxCell>
      </root>
    </mxGraphModel>
  </diagram>
</mxfile>
